PathFileType	4	(X/Y/Z)	Walk1_0-155.trc
DataRate	CameraRate	NumFrames	NumMarkers	Units	OrigDataRate	OrigDataStartFrame	OrigNumFrames
30	30	6	22	m	30	19	155
Frame#	Time	Hip			RHip			RKnee			RAnkle			RBigToe			RSmallToe			RHeel			LHip			LKnee			LAnkle			LBigToe			LSmallToe			LHeel			Neck			Head			Nose			RShoulder			RElbow			RWrist			LShoulder			LElbow			LWrist		
		X1	Y1	Z1	X2	Y2	Z2	X3	Y3	Z3	X4	Y4	Z4	X5	Y5	Z5	X6	Y6	Z6	X7	Y7	Z7	X8	Y8	Z8	X9	Y9	Z9	X10	Y10	Z10	X11	Y11	Z11	X12	Y12	Z12	X13	Y13	Z13	X14	Y14	Z14	X15	Y15	Z15	X16	Y16	Z16	X17	Y17	Z17	X18	Y18	Z18	X19	Y19	Z19	X20	Y20	Z20	X21	Y21	Z21	X22	Y22	Z22
20	0.6666666666666666	-2.5096991798348514	0.8445966190947102	0.3270905351461646	-2.478657603164893	0.8336928998490718	0.4115851966761228	-2.3296226688210897	0.5184040938434126	0.46132199190394874	-2.4910207903803325	0.12396823897801874	0.49290408113889056	-2.3368903264916203	-0.0008308153618077807	0.5225925801235669	-2.3610596955091663	0.005306288935802744	0.5891459452568191	-2.53232888059019	0.04986048910089151	0.4905510030123372	-2.533203748830496	0.8106444295176368	0.2284490631673831	-2.500472949915932	0.4640360213754973	0.2352047268959513	-2.575530527817636	0.07030903807998484	0.27340521011177105	-2.381040070772405	-0.019796714946231957	0.2728514010567697	-2.4293558765321546	-0.028707656180179963	0.21561626969589617	-2.624353631802329	-0.016096966431581372	0.2882519252998124	-2.4958561976811935	1.51802950951912	0.276693982661683	-2.4479732944069967	1.775058551160797	0.27481329465527543	-2.3480932267928027	1.638339875862939	0.29007409943294116	-2.537942192912037	1.4046549007457634	0.4604241348241535	-2.5174962310317603	1.0908402756163291	0.5546070505257518	-2.4303525641430714	0.8544260801198905	0.5686057719428427	-2.511098836134683	1.3928210469577744	0.12276428255101832	-2.5102552641130447	1.0846748029203073	0.07141234454031098	-2.4655809075403803	0.8366012309690476	0.0794373705467373
21	0.7	-2.4985705623569534	0.8475106674612065	0.32498927405919104	-2.4653387400509197	0.8393086594482556	0.41003591220246194	-2.304406173604648	0.5255712673699343	0.4574251655698008	-2.4525072118387548	0.13208267531233234	0.4874066801227133	-2.3038185883978493	0.008412138385264958	0.5136967616851342	-2.3255106298887602	0.012582670834953102	0.5816722134750754	-2.503221475191081	0.05530113022110511	0.4824351294542501	-2.5271529483285886	0.8131966168056659	0.22533777299368873	-2.495567155912125	0.4653019150564845	0.23317069442852018	-2.575754228939086	0.0717205689495998	0.271389994734826	-2.3818796991170696	-0.020492977347854976	0.27150301442543273	-2.4301117757010884	-0.029025848113089038	0.2153322505877555	-2.6246757277529578	-0.014087725722217538	0.28533820242761226	-2.4854950741400614	1.518933189535372	0.2747989805389833	-2.435979809354182	1.7753568330231302	0.2761554365995403	-2.3377570628352444	1.638287908942269	0.28903367863094076	-2.5291248192296694	1.4062188232885011	0.4589934321396989	-2.5135915872162844	1.0908602440503845	0.5524195779895718	-2.4283648877170947	0.8529179172521067	0.5684948404368315	-2.5043126144372785	1.3943625055768532	0.11466592079948726	-2.4992028155342316	1.0859721324980205	0.06731171102974569	-2.455999566593681	0.8377063340904659	0.07530429930452265
22	0.7333333333333333	-2.4865360142809663	0.8498404577298733	0.3235833349759054	-2.4505358399608212	0.8433416275070201	0.409484470894942	-2.284915894929777	0.5309250649890206	0.45279404850387706	-2.4121172484287543	0.13668752014455016	0.481520327499445	-2.262537548968385	0.018704348863663452	0.504521426194283	-2.2821253501273073	0.01959463781560147	0.5725047585084577	-2.4690040499607204	0.05614807239665547	0.473866248653492	-2.519613256902112	0.8148171743960757	0.22351783705714198	-2.491231925567247	0.4649754304353969	0.23197099756311249	-2.5757286521664207	0.07270800146533413	0.2691282483170138	-2.3823552661398226	-0.02097054921495222	0.2698982802857892	-2.4303449025643356	-0.029387281069622295	0.21466680203906313	-2.624571395066363	-0.013021901368508216	0.2821625381538983	-2.474172736785397	1.519795523785151	0.27387038723545293	-2.423134366810418	1.7755221532176877	0.28041255765412115	-2.32455249845948	1.6386463900941644	0.2893379620743119	-2.518734642658838	1.4072837438482004	0.45859162756605165	-2.5088049241962804	1.090840839284865	0.5507576762018624	-2.4272379615065987	0.8506349857269904	0.5689309436827756	-2.4978556691440157	1.396308957511803	0.10627004541733484	-2.4871803325402735	1.0869664700611676	0.06469272497782501	-2.444173426455791	0.8389924087907287	0.0732531206305886
23	0.7666666666666667	-2.474018671199066	0.8513785254938432	0.322681798925671	-2.4348690506876127	0.8453628149466635	0.40969107383734366	-2.271281998884748	0.5343037063125344	0.4469938090024853	-2.3701946089059907	0.13782125542455476	0.4757946330836127	-2.2130657219738405	0.029425109201840844	0.49658721292730773	-2.2318986587981775	0.02694838498299363	0.5622286800694274	-2.429010990143369	0.052817943383752654	0.4659293693956467	-2.510436336296203	0.8153888050073973	0.22289363073433877	-2.4874014850817936	0.4631276560378816	0.23149207367933178	-2.5754095098474767	0.07297303060120072	0.2671158629376442	-2.3824007485063508	-0.021615941107325096	0.2686995386226198	-2.429916167149521	-0.03004527856398288	0.21402192832978723	-2.6239767218526877	-0.013175680545164867	0.2793748875473668	-2.4618530019665292	1.5203962475654924	0.27375827668424313	-2.4087507759445366	1.7752233612193784	0.2852174671246257	-2.3095423206706016	1.6389257581778667	0.2900027624161739	-2.5071435381182017	1.4076989734903398	0.45862839218232143	-2.503007227771952	1.0906087251699212	0.5493252300027153	-2.4266395255381106	0.847755297113943	0.5697646212496005	-2.4907542198170374	1.3983720358582041	0.0989897434394383	-2.474217337091141	1.0874754331820524	0.06352774790779128	-2.430067991867313	0.840199464945119	0.07318770045266104
24	0.8	-2.4614880438443665	0.8519785974426374	0.3220294939071383	-2.4191648623371647	0.8452642554295282	0.4102823913670258	-2.262503666962618	0.5358161921714096	0.43979473937425545	-2.327163362750175	0.13647726795269588	0.470695341107275	-2.1571860535932568	0.03998470385149066	0.4906946718393117	-2.1764688396425917	0.03538802975218329	0.5515774123751161	-2.3827316526805613	0.04683759477759286	0.4594102012887948	-2.4997926667978723	0.8149399437055808	0.22316971258625973	-2.4838820543176663	0.4600970677119312	0.23167238224420234	-2.5748609762176353	0.07228156131947125	0.2660026581908711	-2.3822654413641695	-0.022967979741166756	0.26876566200755797	-2.4290648026224266	-0.03128050483778008	0.21426550528566363	-2.6229813772471453	-0.014552556022217859	0.2776862493176951	-2.448502278263072	1.5206149610326536	0.2742540331941176	-2.392812961307848	1.7744138986005094	0.28874587516748634	-2.293804285008211	1.6387239219051877	0.29035296676430583	-2.494631725264439	1.4074713983090337	0.45879751367359584	-2.4961039760270944	1.0901330699954015	0.5478939988856029	-2.4262347225449226	0.8446879491967973	0.570837566492603	-2.482473902532146	1.4003827455558528	0.09339693546794628	-2.4601385166190224	1.08742705817816	0.06358733067318072	-2.413719266402698	0.8410648168025348	0.07477734643677951
25	0.8333333333333334	-2.4492790132205005	0.8514714825919065	0.321501604681	-2.404154107087381	0.8432998772068261	0.4110351788533484	-2.2565392310774577	0.535426942859817	0.431637000799074	-2.283806851957976	0.13405198306720578	0.4664102457922442	-2.097807801066455	0.050220327376339406	0.4865796597914379	-2.118173442926585	0.04524321476276731	0.5415974559968821	-2.3313887710403756	0.03974544069437728	0.45426066238026847	-2.4880937969076626	0.8135853178880798	0.22410757980503354	-2.480245923312319	0.45645123050043657	0.2324905628138073	-2.5742188065370755	0.07061831558182212	0.26630429332678823	-2.3823867913225065	-0.025427336538852884	0.2708612974968723	-2.428399626160798	-0.033279883234653015	0.21652158487660098	-2.6218715867621376	-0.016831724873461098	0.27758542495821065	-2.434083946741989	1.5204076292312654	0.2751614498196004	-2.376471232867702	1.773403231076864	0.28967207647464444	-2.2778532537911333	1.6378872619453195	0.29079953674566117	-2.481281473811863	1.4067957385815546	0.45906375814067024	-2.4879659826490514	1.089507653269879	0.546461710485617	-2.425724451186324	0.8417615361642504	0.5720465437036603	-2.47334997897301	1.4023894802252932	0.08866459014220518	-2.444695274223888	1.0868349016181178	0.06452787308584804	-2.395227948301149	0.8413313758096257	0.07751225060624929
